# xmcd
#
# Track frame offsets: 
#        150
#        17145
#        32510
#        53445
#        72245
#        90405
#        112087
#        128107
#
# Disc length: 1898 seconds
#
# Revision: 0
# Processed by: cddbd v1.5.2PL0 Copyright (c) Steve Scherf et al.
# Submitted via: ExactAudioCopyFreeDBPlugin 1.0
#
DISCID=5e076808
DTITLE=Various Artist - Christmas Sampler 2002
DYEAR=2002
DGENRE=Christmas
TTITLE0=Martina McBride - O Holy Night
TTITLE1=Martina McBride - Silent Night
TTITLE2=Lonestar - Little Drummer Boy
TTITLE3=Lonestar - Santa Claus Is Comin' To Town
TTITLE4=Lonestar - Reason For The Season
TTITLE5=Sara Evans - O Come All Ye Faithful
TTITLE6=Alabama - Christmas In Dixie
TTITLE7=Alabama - O Little Town Of Bethlehem
EXTD=
EXTT0=
EXTT1=
EXTT2=
EXTT3=
EXTT4=
EXTT5=
EXTT6=
EXTT7=
PLAYORDER=
